<svg xmlns="http://www.w3.org/2000/svg" viewBox="0 0 800 520" role="img" aria-label="Lagos to Port Harcourt route">
  <defs>
    <linearGradient id="bg" x1="0" x2="1" y1="0" y2="1">
      <stop offset="0" stop-color="#0ea5e9"/>
      <stop offset=".5" stop-color="#2563eb"/>
      <stop offset="1" stop-color="#7e22ce"/>
    </linearGradient>
  </defs>
  <rect width="800" height="520" fill="url(#bg)"/>
  <path d="M0 344 C132 300 260 316 390 260 C540 196 672 204 800 156 L800 520 L0 520 Z" fill="#064e3b" opacity=".68"/>
  <path d="M0 420 C150 370 246 374 382 326 C552 266 670 278 800 238 L800 520 L0 520 Z" fill="#0f172a" opacity=".34"/>
  <path d="M66 458 C192 376 282 340 400 294 C528 244 632 198 734 130" fill="none" stroke="#f8fafc" stroke-width="12" stroke-linecap="round" stroke-dasharray="28 28" opacity=".9"/>
  <g transform="translate(98 292)">
    <rect x="0" y="38" width="230" height="88" rx="24" fill="#e0f2fe"/>
    <rect x="34" y="4" width="124" height="58" rx="18" fill="#e0f2fe"/>
    <rect x="24" y="54" width="44" height="30" rx="8" fill="#2563eb"/>
    <rect x="82" y="54" width="44" height="30" rx="8" fill="#2563eb"/>
    <rect x="140" y="54" width="44" height="30" rx="8" fill="#2563eb"/>
    <circle cx="56" cy="130" r="20" fill="#020617"/>
    <circle cx="176" cy="130" r="20" fill="#020617"/>
  </g>
  <g fill="#e0f2fe" opacity=".72">
    <rect x="612" y="236" width="24" height="132" rx="6"/>
    <rect x="654" y="206" width="28" height="162" rx="6"/>
    <rect x="698" y="252" width="24" height="116" rx="6"/>
  </g>
  <text x="44" y="72" fill="white" font-family="Arial, sans-serif" font-size="34" font-weight="700">Lagos to Port Harcourt</text>
</svg>
