<svg xmlns="http://www.w3.org/2000/svg" viewBox="0 0 800 520" role="img" aria-label="Lagos to Abuja route">
  <defs>
    <linearGradient id="bg" x1="0" x2="1" y1="0" y2="1">
      <stop offset="0" stop-color="#1d4ed8"/>
      <stop offset=".6" stop-color="#4f46e5"/>
      <stop offset="1" stop-color="#9333ea"/>
    </linearGradient>
  </defs>
  <rect width="800" height="520" fill="url(#bg)"/>
  <path d="M0 380 C130 320 210 330 330 278 C475 216 596 230 800 158 L800 520 L0 520 Z" fill="#0f172a" opacity=".32"/>
  <path d="M44 365 C160 325 238 330 350 282 C486 224 610 232 756 184" fill="none" stroke="#bae6fd" stroke-width="12" stroke-linecap="round" stroke-dasharray="24 28"/>
  <g fill="#e0f2fe" opacity=".92">
    <rect x="520" y="150" width="44" height="230" rx="8"/>
    <rect x="580" y="100" width="52" height="280" rx="8"/>
    <rect x="648" y="184" width="44" height="196" rx="8"/>
    <path d="M580 100 L606 56 L632 100 Z"/>
  </g>
  <g transform="translate(92 286)">
    <rect x="0" y="36" width="246" height="92" rx="24" fill="#ffffff"/>
    <rect x="38" y="0" width="132" height="62" rx="20" fill="#ffffff"/>
    <rect x="26" y="52" width="48" height="32" rx="8" fill="#2563eb"/>
    <rect x="90" y="52" width="48" height="32" rx="8" fill="#2563eb"/>
    <rect x="154" y="52" width="48" height="32" rx="8" fill="#2563eb"/>
    <circle cx="58" cy="132" r="20" fill="#020617"/>
    <circle cx="190" cy="132" r="20" fill="#020617"/>
  </g>
  <text x="44" y="72" fill="white" font-family="Arial, sans-serif" font-size="34" font-weight="700">Lagos to Abuja</text>
</svg>
