<svg xmlns="http://www.w3.org/2000/svg" viewBox="0 0 800 520" role="img" aria-label="Lagos to Benin route">
  <defs>
    <linearGradient id="sky" x1="0" x2="1" y1="0" y2="1">
      <stop offset="0" stop-color="#0ea5e9"/>
      <stop offset="0.58" stop-color="#2563eb"/>
      <stop offset="1" stop-color="#7c3aed"/>
    </linearGradient>
    <linearGradient id="road" x1="0" x2="1">
      <stop offset="0" stop-color="#0f172a"/>
      <stop offset="1" stop-color="#1e293b"/>
    </linearGradient>
  </defs>
  <rect width="800" height="520" fill="url(#sky)"/>
  <circle cx="650" cy="94" r="72" fill="#fbbf24" opacity=".9"/>
  <path d="M0 290 C140 230 260 260 392 214 C535 164 665 190 800 132 L800 520 L0 520 Z" fill="#0f766e" opacity=".8"/>
  <path d="M0 340 C130 302 245 318 380 278 C540 230 690 247 800 210 L800 520 L0 520 Z" fill="#14532d" opacity=".78"/>
  <path d="M245 520 C310 415 363 350 409 294 C452 243 482 218 505 200 C497 295 514 408 576 520 Z" fill="url(#road)"/>
  <path d="M432 520 C423 448 419 382 420 312" fill="none" stroke="#f8fafc" stroke-width="10" stroke-linecap="round" stroke-dasharray="34 34" opacity=".8"/>
  <g transform="translate(178 326)">
    <rect x="0" y="42" width="224" height="86" rx="22" fill="#e0f2fe"/>
    <rect x="30" y="8" width="120" height="52" rx="18" fill="#e0f2fe"/>
    <rect x="24" y="54" width="44" height="30" rx="8" fill="#2563eb"/>
    <rect x="82" y="54" width="44" height="30" rx="8" fill="#2563eb"/>
    <rect x="140" y="54" width="44" height="30" rx="8" fill="#2563eb"/>
    <circle cx="55" cy="130" r="20" fill="#020617"/>
    <circle cx="172" cy="130" r="20" fill="#020617"/>
    <path d="M10 113 H214" stroke="#38bdf8" stroke-width="8"/>
  </g>
  <text x="44" y="72" fill="white" font-family="Arial, sans-serif" font-size="34" font-weight="700">Lagos to Benin</text>
</svg>
